<svg xmlns="http://www.w3.org/2000/svg" version="1.0" preserveAspectRatio="xMidYMid meet" viewBox="32.17 13.12 747.03 233.88">
<metadata>
Created by potrace 1.16, written by Peter Selinger 2001-2019
</metadata>
<g transform="translate(0.000000,257.000000) scale(0.100000,-0.100000)" fill="#000000" stroke="none">
<path d="M820 2409 c-19 -45 -14 -96 17 -158 20 -42 66 -95 184 -211 89 -88 165 -173 177 -197 73 -143 36 -258 -91 -285 -56 -12 -57 -12 -86 16 -32 31 -61 101 -61 149 0 39 28 95 51 102 68 22 130 -65 82 -117 -9 -10 -12 -18 -6 -18 32 0 62 75 43 109 -12 23 -2 28 20 9 8 -7 6 -3 -5 10 -45 55 -172 79 -246 48 -76 -32 -129 -108 -129 -185 0 -53 41 -132 90 -174 97 -83 231 -100 367 -47 104 41 120 49 155 85 43 43 58 85 58 162 0 169 -87 294 -306 442 -60 40 -126 90 -146 109 -21 20 -38 31 -38 25 0 -13 122 -113 209 -172 187 -128 292 -321 252 -467 -11 -40 -74 -124 -85 -113 -3 3 5 25 17 50 17 34 22 62 22 125 0 72 -4 87 -37 155 -46 93 -119 168 -256 262 -188 128 -254 208 -239 287 8 39 3 38 -13 -1z"/>
<path d="M7277 1494 c-9 -9 -9 -510 -1 -541 7 -25 30 -31 35 -10 2 6 2 133 -1 281 -5 255 -9 293 -33 270z"/>
<path d="M6809 1466 c-2 -3 -4 -125 -3 -272 1 -206 4 -269 14 -272 15 -5 30 16 30 46 0 28 7 28 31 -2 44 -56 127 -68 203 -29 77 40 116 151 85 244 -45 134 -166 167 -275 76 -18 -15 -35 -27 -38 -27 -3 0 -6 47 -6 104 0 57 -3 111 -6 120 -6 15 -25 21 -35 12z m275 -225 c54 -48 68 -163 26 -225 -40 -57 -143 -74 -191 -30 -25 23 -69 112 -69 141 0 31 61 96 113 122 46 23 89 21 121 -8z"/>
<path d="M5027 1414 c-4 -4 -7 -125 -7 -269 0 -211 3 -265 14 -281 9 -12 18 -15 23 -9 4 6 6 133 3 284 -5 260 -9 298 -33 275z"/>
<path d="M975 1400 c267 -11 496 -44 480 -70 -5 -8 -957 -3 -990 6 -14 3 -13 1 5 -10 62 -35 339 -66 595 -66 247 0 517 29 581 63 27 14 27 15 6 26 -74 40 -301 61 -622 59 l-235 -1 180 -7z"/>
<path d="M4427 1394 c-4 -4 -7 -61 -7 -126 0 -74 -4 -118 -10 -118 -6 0 -13 7 -16 15 -8 20 -102 65 -135 65 -91 0 -158 -87 -159 -204 0 -103 64 -179 164 -192 50 -7 113 20 143 62 l20 27 7 -36 c7 -39 22 -55 37 -40 6 6 5 111 -3 278 -12 252 -18 291 -41 269z m-97 -234 c30 -16 73 -58 88 -86 19 -35 -26 -147 -70 -178 -28 -20 -100 -21 -137 -2 -85 44 -94 196 -17 264 30 26 39 29 73 23 21 -4 49 -14 63 -21z"/>
<path d="M2191 1359 c-132 -39 -209 -185 -181 -348 34 -200 234 -296 420 -201 l40 20 0 60 c0 60 -8 72 -29 46 -39 -46 -204 -61 -278 -25 -54 26 -75 64 -81 150 -8 122 43 216 130 240 60 16 159 6 203 -20 20 -11 38 -21 41 -21 10 0 3 58 -8 67 -47 36 -182 53 -257 32z"/>
<path d="M3140 1346 c-35 -20 -49 -51 -52 -116 l-3 -55 -45 -5 c-31 -3 -45 -10 -45 -20 0 -11 13 -16 48 -18 l47 -3 0 -142 c0 -159 5 -189 29 -185 14 3 16 22 12 166 l-3 162 41 0 c29 0 44 5 48 16 8 21 -13 34 -54 34 -33 0 -33 1 -33 48 0 61 16 82 66 89 35 4 45 1 76 -26 20 -17 41 -31 47 -31 21 0 11 36 -19 65 -23 22 -41 29 -82 32 -34 2 -62 -2 -78 -11z"/>
<path d="M7520 1319 c-79 -46 -115 -114 -108 -205 9 -103 85 -174 188 -174 110 0 191 80 192 189 1 144 -158 254 -272 190z m157 -51 c39 -27 73 -90 73 -136 0 -162 -209 -209 -284 -65 -51 99 22 223 132 223 31 0 57 -7 79 -22z"/>
<path d="M5595 1318 c-22 -5 -55 -23 -74 -41 l-34 -32 7 28 c6 25 4 27 -22 27 l-29 0 -7 -252 c-3 -139 -9 -272 -12 -295 l-6 -43 41 0 41 0 0 115 0 116 38 -30 c47 -37 89 -46 142 -30 83 25 130 102 130 214 0 156 -92 251 -215 223z m133 -73 c36 -40 46 -83 40 -162 -7 -76 -27 -93 -117 -93 -44 0 -74 5 -88 15 -63 44 -48 230 21 264 12 5 42 10 67 10 41 1 51 -3 77 -34z"/>
<path d="M1666 1301 c-16 -7 -54 -19 -85 -26 -260 -60 -978 -46 -1113 21 -15 8 -29 14 -33 14 -9 0 -5 -73 10 -155 41 -232 219 -421 460 -490 84 -24 241 -24 320 0 33 10 78 18 101 18 51 0 194 -32 194 -42 0 -22 -258 -59 -470 -69 -179 -7 -152 -15 95 -27 297 -15 497 36 455 114 -12 24 -51 45 -98 56 -71 15 -18 15 99 0 223 -29 421 -87 392 -116 -62 -62 -604 -138 -982 -139 -69 0 -78 3 -135 39 -161 101 -317 161 -421 161 -82 0 -138 -22 -133 -54 5 -34 45 -46 152 -46 55 0 125 -7 160 -15 82 -21 205 -66 212 -77 4 -6 -30 -8 -87 -5 l-94 5 105 -9 c58 -6 125 -17 150 -24 67 -21 202 -99 308 -179 171 -130 220 -156 289 -156 48 0 93 45 93 93 0 48 -47 109 -106 138 -42 20 -66 23 -189 26 -144 4 -214 17 -287 54 -21 11 -38 20 -38 22 0 1 123 2 273 3 149 0 317 6 372 13 322 39 462 103 415 191 -32 61 -204 106 -513 135 l-68 7 50 51 c27 29 59 64 70 78 24 32 97 52 168 48 27 -1 56 1 66 5 20 10 62 78 71 118 8 36 -15 92 -48 113 -23 16 -86 22 -127 13 -10 -2 -15 13 -19 52 l-5 55 -29 -14z m-1061 -87 c55 -8 197 -18 315 -21 242 -7 257 -21 30 -30 -148 -6 -312 12 -417 46 -72 24 -56 25 72 5z"/>
<path d="M6537 1290 c-62 -11 -119 -49 -154 -102 -24 -36 -28 -52 -28 -113 0 -61 4 -75 25 -102 54 -68 151 -84 260 -43 66 25 83 39 71 59 -7 11 -21 8 -74 -13 -104 -41 -199 -29 -226 30 -15 34 -15 34 24 34 121 0 254 66 271 135 20 81 -57 134 -169 115z m102 -50 c49 -26 24 -91 -46 -121 -47 -20 -189 -46 -199 -36 -12 11 17 85 43 109 53 50 154 74 202 48z"/>
<path d="M5931 1230 c-28 -131 -5 -262 55 -309 59 -46 108 -40 172 24 35 35 44 40 49 27 17 -54 27 -72 45 -78 29 -9 33 2 15 43 -23 56 -26 77 -28 205 -1 85 -5 121 -15 129 -25 21 -34 -2 -34 -91 0 -65 -5 -104 -19 -141 -36 -95 -111 -129 -168 -77 -42 39 -52 146 -27 286 5 27 3 32 -14 32 -16 0 -22 -10 -31 -50z"/>
<path d="M4763 1220 c-117 -24 -193 -105 -193 -209 0 -105 71 -174 177 -173 91 1 203 50 184 81 -7 11 -21 8 -77 -14 -89 -36 -160 -32 -204 10 -41 39 -39 55 8 55 48 0 141 24 191 50 42 21 81 74 81 110 0 35 -37 78 -78 90 -20 5 -39 9 -42 9 -3 -1 -24 -5 -47 -9z m104 -55 c70 -49 -43 -133 -201 -151 l-59 -7 7 26 c12 49 24 72 49 95 51 47 161 67 204 37z"/>
<path d="M3617 1189 c-101 -16 -178 -99 -185 -199 -4 -49 0 -65 19 -97 32 -52 56 -70 110 -82 79 -17 229 29 229 71 0 23 -3 23 -75 -7 -92 -38 -169 -32 -214 16 -34 36 -26 46 42 52 159 15 271 101 241 185 -19 52 -81 75 -167 61z m113 -59 c11 -11 20 -26 20 -32 -1 -22 -34 -55 -77 -77 -44 -22 -188 -49 -199 -38 -11 11 24 92 50 116 53 50 170 67 206 31z"/>
<path d="M2699 1160 c-104 -55 -149 -189 -100 -297 26 -55 60 -77 112 -70 51 7 83 28 117 77 15 22 30 39 35 40 4 0 7 -15 7 -34 0 -45 16 -86 34 -86 20 0 12 281 -10 326 -31 62 -122 83 -195 44z m146 -45 c34 -33 32 -69 -11 -154 -42 -83 -84 -121 -137 -121 -45 0 -65 26 -74 97 -9 77 34 160 98 187 52 23 96 20 124 -9z"/>
</g>
</svg>