<?xml version="1.0" standalone="no"?>
<!DOCTYPE svg PUBLIC "-//W3C//DTD SVG 20010904//EN"
 "http://www.w3.org/TR/2001/REC-SVG-20010904/DTD/svg10.dtd">
<svg version="1.0" xmlns="http://www.w3.org/2000/svg"
 width="300" height="110" viewBox="0 0 866.000000 431.000000"
 preserveAspectRatio="xMidYMid meet">

<g transform="translate(0.000000,431.000000) scale(0.100000,-0.100000)"
fill="#000000" stroke="none">
<path d="M1349 3528 c-40 -96 2 -171 202 -368 179 -176 212 -227 212 -330 0
-81 -25 -119 -98 -147 -77 -30 -129 -2 -160 86 -19 56 -19 94 1 137 19 40 51
51 91 32 39 -18 52 -61 31 -99 -23 -40 -3 -37 23 4 14 22 18 41 14 62 -4 17
-8 36 -9 43 -4 22 -84 52 -136 52 -208 0 -293 -208 -145 -356 102 -103 228
-122 396 -59 149 56 200 117 201 239 1 168 -90 299 -302 441 -58 38 -135 100
-172 136 -37 37 -65 62 -61 55 28 -48 83 -100 198 -186 173 -129 225 -181 272
-277 34 -70 38 -84 38 -159 0 -75 -2 -86 -30 -125 -16 -23 -40 -49 -53 -57
-22 -14 -22 -13 5 39 24 45 28 65 28 134 0 73 -4 88 -37 156 -46 93 -120 169
-255 261 -186 127 -253 205 -240 284 7 42 3 43 -14 2z m151 -596 c0 -4 -6 -14
-12 -21 -21 -20 -15 -130 11 -178 24 -48 20 -52 -27 -23 -66 41 -90 118 -53
174 25 38 81 71 81 48z"/>
<path d="M1660 2946 c0 -2 7 -9 15 -16 13 -11 14 -10 9 4 -5 14 -24 23 -24 12z"/>
<path d="M1691 2894 c0 -11 3 -14 6 -6 3 7 2 16 -1 19 -3 4 -6 -2 -5 -13z"/>
<path d="M7807 2613 c-4 -3 -7 -127 -7 -273 0 -229 2 -269 15 -280 9 -8 19 -9
23 -4 4 5 6 134 4 287 -2 216 -6 277 -16 277 -7 0 -16 -3 -19 -7z"/>
<path d="M7345 2584 c-6 -2 -10 -102 -9 -271 0 -258 1 -268 20 -268 14 0 20 9
24 33 l5 34 29 -31 c79 -82 217 -55 271 53 34 67 33 127 -2 197 -58 113 -159
130 -259 46 -18 -15 -35 -27 -38 -27 -3 0 -6 47 -6 104 0 127 -4 143 -35 130z
m262 -220 c45 -29 71 -117 54 -182 -16 -59 -60 -94 -123 -100 -66 -5 -96 16
-132 93 -34 71 -33 87 9 134 67 74 134 93 192 55z"/>
<path d="M5557 2534 c-4 -4 -7 -128 -7 -274 0 -229 2 -269 15 -280 9 -8 19 -9
23 -4 4 5 5 132 2 283 -5 260 -9 298 -33 275z"/>
<path d="M1510 2520 c265 -11 491 -44 475 -70 -5 -8 -964 -3 -992 6 -10 3 -6
-1 8 -10 145 -85 1020 -86 1179 -1 l25 14 -37 15 c-84 36 -214 48 -533 51
-274 3 -288 2 -125 -5z"/>
<path d="M4957 2514 c-4 -4 -7 -61 -7 -126 l0 -118 -51 35 c-81 56 -149 58
-203 8 -93 -86 -86 -263 13 -329 77 -50 170 -39 226 27 l24 29 7 -35 c7 -38
20 -53 35 -38 6 6 5 110 -3 278 -12 252 -18 291 -41 269z m-91 -240 c46 -31
67 -52 83 -83 17 -31 -10 -110 -54 -156 -28 -31 -38 -35 -81 -35 -69 0 -117
34 -134 94 -17 63 -6 124 31 169 26 32 36 37 73 37 30 0 55 -8 82 -26z"/>
<path d="M2707 2474 c-105 -33 -171 -140 -171 -279 0 -129 55 -230 151 -276
77 -37 218 -29 291 19 19 12 22 23 22 73 0 33 -3 59 -6 59 -3 0 -18 -8 -32
-18 -67 -47 -194 -57 -267 -22 -63 30 -80 68 -80 175 0 104 21 153 82 195 32
22 47 25 122 25 71 0 93 -4 124 -22 21 -13 40 -23 43 -23 3 0 4 15 2 33 -2 26
-10 35 -42 51 -53 26 -174 31 -239 10z"/>
<path d="M3655 2457 c-27 -22 -31 -33 -35 -94 l-5 -68 -45 -5 c-31 -3 -45 -10
-45 -20 0 -11 13 -16 48 -18 l47 -3 0 -152 c0 -156 6 -185 34 -174 15 6 16 24
10 166 l-7 160 44 3 c36 2 44 7 44 23 0 16 -8 21 -42 23 l-43 3 0 45 c0 60 13
82 54 89 35 7 81 -10 105 -39 8 -9 20 -16 27 -16 24 0 15 35 -16 65 -24 23
-41 29 -87 32 -50 4 -62 1 -88 -20z"/>
<path d="M8049 2437 c-24 -13 -57 -43 -74 -66 -27 -38 -30 -51 -30 -115 0 -62
4 -78 28 -114 35 -54 90 -82 159 -82 65 0 112 22 152 73 41 52 49 143 16 207
-53 105 -159 145 -251 97z m157 -47 c40 -25 74 -92 74 -147 0 -72 -72 -143
-145 -143 -118 1 -189 123 -135 231 39 75 134 103 206 59z"/>
<path d="M2190 2420 c-163 -82 -960 -86 -1188 -6 l-42 15 0 -37 c1 -82 29
-194 70 -278 77 -159 222 -277 405 -330 81 -23 249 -22 325 1 30 10 73 18 96
18 50 0 194 -31 194 -42 0 -21 -254 -58 -465 -68 -181 -8 -158 -15 95 -28 293
-15 492 36 450 114 -12 24 -51 45 -98 56 -72 15 -18 16 95 0 197 -26 368 -70
393 -101 40 -47 -326 -119 -735 -144 -309 -18 -294 -20 -425 55 -160 91 -256
127 -355 133 -99 5 -158 -14 -153 -50 5 -36 43 -48 153 -48 105 0 198 -19 304
-61 89 -35 85 -41 -19 -35 -118 6 -91 0 52 -13 104 -9 111 -11 219 -68 62 -32
160 -96 222 -145 128 -100 181 -129 246 -136 90 -8 138 67 96 149 -38 73 -153
117 -272 105 -73 -8 -171 6 -246 34 -115 43 -107 45 185 46 292 1 468 17 613
54 143 37 196 76 181 134 -18 73 -170 116 -534 152 l-53 6 50 51 c27 29 59 64
70 78 25 33 102 53 172 47 58 -6 81 7 108 60 29 59 33 88 15 131 -10 26 -25
43 -46 52 -29 12 -111 14 -129 4 -4 -3 -9 21 -11 54 l-3 59 -35 -18z m-968
-95 c73 -8 203 -15 288 -16 199 0 171 -19 -40 -26 -118 -4 -167 -1 -265 15
-66 12 -138 28 -160 37 l-40 15 42 -5 c23 -3 102 -12 175 -20z m-62 -44 c103
-17 390 -32 450 -25 46 5 53 4 42 -7 -10 -11 -57 -14 -210 -14 -171 0 -209 3
-285 23 -49 12 -96 26 -105 32 -18 10 -19 10 108 -9z m1154 -31 c57 -21 17
-120 -47 -120 -78 0 -90 90 -16 119 31 13 33 13 63 1z m-1099 -26 c55 -8 179
-18 275 -21 188 -7 190 -17 5 -29 -111 -7 -258 11 -360 45 -73 23 -51 25 80 5z
m25 -55 c36 -5 146 -13 245 -16 137 -5 173 -8 155 -16 -14 -6 -95 -11 -180
-11 -131 0 -168 3 -240 22 -84 23 -134 48 -75 37 17 -3 59 -10 95 -16z m41
-54 c63 -9 174 -16 247 -17 174 -1 163 -21 -16 -26 -133 -4 -253 11 -322 41
-45 20 -44 20 91 2z m24 -55 c39 -5 135 -13 215 -17 148 -7 155 -14 23 -28
-81 -8 -211 8 -300 37 -64 20 -85 34 -35 24 15 -3 59 -10 97 -16z m5 -51 c36
-6 130 -14 210 -18 l145 -7 -60 -13 c-82 -19 -220 -9 -316 23 -82 27 -76 31
21 15z m63 -58 c43 -6 126 -11 185 -11 85 0 104 -3 94 -12 -21 -21 -243 -17
-324 6 -38 10 -68 23 -68 28 0 5 8 7 18 4 9 -3 52 -10 95 -15z m92 -61 c44 -6
107 -10 139 -10 76 0 67 -9 -21 -21 -76 -10 -201 6 -263 35 l-35 16 50 -5 c28
-3 86 -10 130 -15z m-10 -51 c33 -5 94 -9 135 -9 59 -1 71 -3 56 -12 -52 -30
-208 -18 -291 22 l-40 20 40 -6 c22 -3 67 -10 100 -15z m-344 -89 c63 -20 137
-57 94 -47 -11 3 -47 15 -80 28 -44 16 -84 22 -146 23 -48 1 -82 4 -75 8 23
15 144 8 207 -12z m718 -372 c101 -72 184 -118 215 -118 11 0 33 7 49 14 15 8
27 11 27 6 0 -5 -14 -17 -31 -26 -43 -22 -103 -12 -165 28 -47 29 -194 147
-194 154 0 11 20 -1 99 -58z"/>
<path d="M4080 2415 c-6 -14 -14 -36 -20 -50 -7 -20 -6 -25 5 -25 16 0 67 79
59 92 -10 17 -35 7 -44 -17z"/>
<path d="M6058 2403 c-41 -38 -41 -38 -34 -10 6 25 4 27 -23 27 l-28 0 -7
-247 c-3 -137 -9 -269 -12 -295 l-6 -48 41 0 41 0 0 116 0 116 34 -30 c64 -56
159 -49 219 15 42 44 55 84 56 164 1 75 -11 120 -46 167 -33 44 -72 62 -137
62 -50 0 -60 -4 -98 -37z m184 -23 c40 -31 58 -80 58 -154 0 -58 -3 -70 -25
-91 -21 -22 -33 -25 -92 -25 -46 0 -76 5 -90 15 -30 21 -46 87 -38 154 6 44
14 62 40 88 27 27 40 33 78 33 29 0 53 -7 69 -20z"/>
<path d="M7061 2409 c-99 -19 -172 -100 -179 -199 -5 -66 18 -119 66 -155 42
-31 147 -33 222 -5 66 25 83 39 70 59 -7 12 -18 10 -62 -9 -38 -17 -72 -24
-121 -24 -65 -1 -70 1 -98 32 -38 42 -37 52 6 52 50 0 134 20 177 41 167 85
105 243 -81 208z m119 -59 c11 -11 20 -26 20 -32 0 -28 -47 -69 -100 -87 -71
-24 -180 -37 -180 -22 0 19 30 84 48 105 47 53 174 74 212 36z"/>
<path d="M6461 2350 c-14 -65 -14 -174 0 -223 14 -53 63 -105 105 -113 46 -8
86 9 129 57 30 33 36 37 41 22 18 -56 28 -73 46 -79 30 -9 33 3 13 44 -14 28
-19 71 -24 184 -3 80 -9 150 -13 153 -4 4 -14 5 -23 2 -12 -5 -15 -24 -15 -95
0 -150 -50 -242 -130 -242 -87 0 -118 117 -84 308 5 27 3 32 -14 32 -16 0 -22
-10 -31 -50z"/>
<path d="M5290 2340 c-56 -10 -98 -31 -132 -67 -85 -88 -74 -238 21 -294 47
-27 138 -27 213 1 65 24 85 42 65 58 -10 8 -29 5 -77 -14 -85 -35 -157 -31
-200 11 -41 39 -39 55 8 55 58 0 146 24 196 54 73 43 96 108 56 159 -17 22
-80 50 -100 46 -3 -1 -25 -5 -50 -9z m110 -58 c17 -14 20 -22 12 -42 -22 -57
-93 -92 -210 -106 -44 -5 -62 -3 -62 5 0 19 30 84 48 105 46 51 168 74 212 38z"/>
<path d="M4147 2309 c-171 -28 -249 -233 -130 -343 42 -39 101 -49 179 -31 64
15 118 37 128 53 2 4 1 14 -3 21 -7 11 -23 8 -77 -14 -89 -36 -160 -32 -204
10 -41 39 -39 55 8 55 58 0 146 24 196 54 49 28 76 68 76 111 0 32 -49 85 -78
85 -11 0 -26 2 -34 4 -7 2 -35 0 -61 -5z m102 -49 c48 -25 28 -81 -41 -116
-46 -23 -193 -53 -205 -40 -3 3 2 26 11 51 18 45 58 85 106 104 33 13 106 14
129 1z"/>
<path d="M3233 2284 c-124 -61 -165 -247 -77 -341 32 -34 37 -35 84 -31 54 5
94 34 128 91 9 15 19 27 23 27 3 0 9 -25 12 -57 5 -51 20 -78 38 -67 4 2 4 72
2 156 -6 167 -17 203 -68 226 -36 17 -104 14 -142 -4z m128 -41 c44 -26 48
-69 11 -146 -41 -89 -91 -137 -142 -137 -46 0 -65 22 -75 85 -22 134 106 257
206 198z"/>
<path d="M1158 1863 c6 -2 18 -2 25 0 6 3 1 5 -13 5 -14 0 -19 -2 -12 -5z"/>
<path d="M2746 1749 c-21 -25 -36 -79 -22 -79 14 0 97 89 92 99 -13 20 -44 12
-70 -20z"/>
<path d="M2793 1715 c-24 -23 -43 -47 -43 -53 0 -39 73 -5 90 41 18 52 -1 57
-47 12z"/>
<path d="M589 1639 c-10 -6 -10 -9 -1 -9 7 0 21 -20 32 -45 14 -32 25 -45 40
-45 14 0 20 6 20 23 -1 43 -62 95 -91 76z"/>
<path d="M556 1623 c-16 -16 -3 -57 25 -84 30 -28 69 -39 69 -19 0 6 -4 10
-10 10 -5 0 -19 20 -31 44 -20 43 -40 61 -53 49z"/>
<path d="M3036 1539 c-26 -31 -34 -73 -16 -84 6 -3 10 0 10 7 0 7 19 29 42 48
25 22 39 41 34 48 -13 21 -44 13 -70 -19z"/>
<path d="M3081 1503 c-43 -40 -51 -73 -19 -73 38 0 89 74 71 102 -6 10 -19 3
-52 -29z"/>
<path d="M2696 1509 c-26 -31 -34 -73 -16 -84 6 -3 10 0 10 8 0 8 16 27 35 41
38 30 47 66 16 66 -11 0 -31 -14 -45 -31z"/>
<path d="M2369 1513 c15 -28 30 -103 20 -103 -4 0 -11 17 -14 38 -8 47 -18 66
-39 70 -26 5 -21 -61 8 -94 21 -25 27 -27 57 -18 28 8 35 15 37 40 4 36 -30
84 -59 84 -15 0 -17 -4 -10 -17z"/>
<path d="M282 1503 c8 -10 20 -32 27 -50 13 -32 35 -48 52 -37 31 19 -25 104
-68 104 -24 0 -25 -2 -11 -17z"/>
<path d="M2743 1475 c-43 -42 -51 -59 -33 -70 15 -9 69 26 77 50 21 61 6 68
-44 20z"/>
<path d="M1142 1490 c0 -14 -3 -44 -7 -67 -6 -36 -5 -44 10 -49 23 -9 45 20
45 57 0 15 -11 41 -25 56 l-24 28 1 -25z"/>
<path d="M239 1488 c-4 -44 40 -98 79 -98 24 0 24 1 8 19 -10 11 -25 35 -34
53 -17 33 -51 50 -53 26z"/>
<path d="M1079 1474 c-15 -41 12 -106 44 -104 1 0 3 29 4 65 3 59 1 65 -17 65
-13 0 -24 -10 -31 -26z"/>
<path d="M846 1405 c-14 -14 -29 -37 -32 -51 -8 -31 11 -56 20 -28 4 11 21 28
39 39 34 22 43 58 15 63 -9 2 -28 -9 -42 -23z"/>
<path d="M920 1400 c0 -8 -19 -31 -42 -50 -42 -37 -45 -60 -8 -60 22 0 70 54
70 78 0 9 -5 24 -10 32 -8 13 -10 13 -10 0z"/>
<path d="M569 1341 c-28 -28 -41 -81 -19 -81 6 0 10 4 10 10 0 5 18 21 40 35
25 16 40 33 40 45 0 30 -36 25 -71 -9z"/>
<path d="M1411 1344 c-12 -15 -21 -41 -21 -60 0 -37 15 -45 25 -14 4 11 17 28
31 36 30 20 33 64 5 64 -11 0 -29 -12 -40 -26z"/>
<path d="M1480 1332 c0 -10 -13 -28 -30 -40 -30 -23 -38 -46 -20 -57 32 -20
87 47 76 91 -7 28 -26 32 -26 6z"/>
<path d="M650 1332 c0 -7 -16 -22 -35 -33 -45 -27 -63 -57 -40 -65 40 -16 115
70 87 98 -9 9 -12 9 -12 0z"/>
<path d="M2427 1282 c-29 -18 -52 -64 -44 -86 4 -10 18 -3 51 28 25 23 46 47
46 53 0 19 -25 22 -53 5z"/>
<path d="M2453 1225 c-49 -47 -54 -65 -18 -65 28 0 61 31 70 67 10 43 -8 42
-52 -2z"/>
<path d="M1687 1234 c-4 -4 0 -12 8 -18 8 -6 23 -27 33 -46 18 -37 54 -48 60
-18 6 32 -80 102 -101 82z"/>
<path d="M1650 1188 c0 -33 49 -78 85 -78 25 0 27 1 12 13 -10 6 -25 28 -35
47 -21 43 -62 55 -62 18z"/>
</g>
</svg>
